# xmcd
#
# Track frame offsets:
#	150
#	26205
#	44937
#	73925
#	94782
#	121495
#	142552
#	169997
#	200922
#
# Disc length: 2753 seconds
#
# Revision: 1
# Processed by: cddbd v1.5.2PL0 Copyright (c) Steve Scherf et al.
# Submitted via: audiograbber 1.83.01
#
DISCID=8d0abf09
DTITLE=PC - The Final Verdict - To The Top
DYEAR=1999
DGENRE=Funk
TTITLE0=Fool For Luv
TTITLE1=Blues Can't Hurt
TTITLE2=Play The Blues
TTITLE3=Give Me The Blues
TTITLE4=I Don't Wanna Be Alone
TTITLE5=To The Top
TTITLE6=Be Mine
TTITLE7=Feels Like Christmas
TTITLE8=Reprise
EXTD=
EXTT0=
EXTT1=
EXTT2=
EXTT3=
EXTT4=
EXTT5=
EXTT6=
EXTT7=
EXTT8=
PLAYORDER=
